<?xml version="1.0" encoding="UTF-8"?>
<svg xmlns="http://www.w3.org/2000/svg" fill="white" data-name="Layer 3" viewBox="0 0 64 64" width="512" height="512"><path d="M22,30a8.009,8.009,0,0,0-8,8v8a1,1,0,0,0,1,1h1v5a1,1,0,0,0,.375.781L21,56.481V62a1,1,0,0,0,1,1H42a1,1,0,0,0,1-1V56.481l4.625-3.7A1,1,0,0,0,48,52V47h1a1,1,0,0,0,1-1V38a8.009,8.009,0,0,0-8-8H37V27.528a9.178,9.178,0,0,0,.945-.68l1.39-1.16a7.376,7.376,0,0,0,2.617-4.843A3,3,0,0,0,42,15.171V10a1,1,0,0,0-.03-.243l-.3-1.209a9.966,9.966,0,0,0-19.336,0l-.3,1.209A1,1,0,0,0,22,10v5.171a3,3,0,0,0,.048,5.674,7.376,7.376,0,0,0,2.617,4.843l1.39,1.16a9.178,9.178,0,0,0,.945.68V30Zm8.478,4.108-2.421,2.421L24.174,32h3.493ZM36.333,32h3.493l-3.883,4.529-2.421-2.421ZM21,45H16V43h5Zm-3,6.52V47h3v6.919Zm28,0-3,2.4V47h3ZM43,45V43h5v2Zm5-7v3H43V39H41V61H23V39H21v2H16V38a6,6,0,0,1,5.559-5.978l5.682,6.628a1,1,0,0,0,.72.349H28a1,1,0,0,0,.707-.293L31,36.414V46h2V36.414l2.293,2.293A1,1,0,0,0,36,39h.039a1,1,0,0,0,.72-.349l5.682-6.628A6,6,0,0,1,48,38ZM32,3a7.954,7.954,0,0,1,7.718,6H24.282A7.954,7.954,0,0,1,32,3Zm6.586,8-.464.464a8.657,8.657,0,0,1-12.244,0L25.414,11ZM25.945,24.152A5.388,5.388,0,0,1,24,20a1,1,0,0,0-1-1,1,1,0,0,1,0-2,1,1,0,0,0,1-1V12.414l.464.464a10.656,10.656,0,0,0,15.072,0L40,12.414V16a1,1,0,0,0,1,1,1,1,0,0,1,0,2,1,1,0,0,0-1,1,5.388,5.388,0,0,1-1.945,4.152l-1.39,1.16a7.29,7.29,0,0,1-9.33,0ZM32,29a9.283,9.283,0,0,0,3-.5v2l-3,2.25L29,30.5v-2A9.283,9.283,0,0,0,32,29Z"/><rect x="34" y="40" width="2" height="2"/><rect x="34" y="44" width="2" height="2"/></svg>
