<svg fill="white" enable-background="new 0 0 64 64" height="512" viewBox="0 0 64 64" width="512" xmlns="http://www.w3.org/2000/svg"><path d="m32 7v-2c-14.888 0-27 12.112-27 27h2c0-13.785 11.215-25 25-25z"/><path d="m5 34h2v2h-2z"/><path d="m3 32c0-15.991 13.01-29 29-29 14.223 0 26.25 10.163 28.599 24.166l1.973-.331c-2.511-14.97-15.369-25.835-30.572-25.835-17.094 0-31 13.907-31 31 0 14.686 10.431 27.462 24.801 30.38l.398-1.96c-13.442-2.729-23.199-14.681-23.199-28.42z"/><path d="m61.328 53.189c-1.523-2.284-2.328-4.943-2.328-7.689s.805-5.405 2.328-7.689l.73-1.096c.616-.924.941-2 .941-3.109.001-3.091-2.514-5.606-5.604-5.606-1.11 0-2.186.326-3.109.941l-.68.453c-1.431.954-2.995 1.646-4.632 2.08-.282-9.129-7.778-16.474-16.974-16.474-9.374 0-17 7.626-17 17 0 8.889 6.86 16.194 15.563 16.927-.384 1.508-1.014 2.948-1.891 4.262l-.73 1.096c-.616.924-.941 2-.941 3.109-.001 3.091 2.514 5.606 5.604 5.606 1.11 0 2.186-.326 3.109-.941l.68-.453c1.121-.747 2.334-1.333 3.605-1.767v3.161h2v-4c0-.334-.167-.646-.445-.832l-5.554-3.703v-3.465c0-.551.448-1 1-1s1 .449 1 1v3h2v-3-10c0-.551.448-1 1-1s1 .449 1 1v7h2v-7-2c0-.551.448-1 1-1s1 .449 1 1v2 7h2v-7c0-.551.448-1 1-1s1 .449 1 1v4 3h2v-3c0-.551.448-1 1-1s1 .449 1 1v10.586l-1.707 1.707c-.188.187-.293.442-.293.707v5h2v-1.132l.285.19c.924.616 1.999.942 3.11.942 3.09 0 5.605-2.515 5.605-5.605 0-1.11-.325-2.185-.941-3.109zm-14.8-24.855-7.758-3.104-3.103-7.758c5.325 1.345 9.516 5.536 10.861 10.862zm-13.178-11.266 3.721 9.303c.102.254.303.455.558.557l9.303 3.721c.036.401.058.806.062 1.215-.659.085-1.323.136-1.994.136-3.073 0-6.049-.901-8.605-2.605l-.68-.453c-.924-.616-1.999-.942-3.11-.942-3.09 0-5.605 2.515-5.605 5.605 0 1.11.325 2.185.941 3.109l.73 1.096c1.524 2.285 2.329 4.944 2.329 7.69 0 .485-.034.967-.084 1.445-.088-.006-.178-.006-.266-.013l-3.721-9.303c-.102-.254-.303-.455-.558-.557l-9.303-3.721c-.04-.446-.068-.895-.068-1.351s.028-.905.068-1.35l9.303-3.721c.255-.102.456-.303.558-.557l3.721-9.303c.445-.041.894-.069 1.35-.069s.905.028 1.35.068zm-5.016.404-3.104 7.758-7.758 3.104c1.345-5.326 5.536-9.517 10.862-10.862zm-10.862 18.194 7.758 3.104 3.103 7.758c-5.325-1.345-9.516-5.536-10.861-10.862zm39.923 25.334c-.714 0-1.405-.209-2-.605l-.68-.453c-.233-.155-.476-.292-.715-.435v-1.092l1.707-1.707c.188-.188.293-.443.293-.708v-11c0-1.654-1.346-3-3-3-.352 0-.686.072-1 .184v-1.184c0-1.654-1.346-3-3-3-.395 0-.77.081-1.116.22-.345-1.275-1.501-2.22-2.884-2.22s-2.538.945-2.884 2.22c-.346-.139-.721-.22-1.116-.22-1.654 0-3 1.346-3 3v7.184c-.314-.112-.648-.184-1-.184-1.654 0-3 1.346-3 3v4c0 .334.167.646.445.832l3.803 2.535c-1.032.432-2.027.95-2.963 1.574l-.68.453c-.595.396-1.286.605-2 .605-1.988.001-3.605-1.616-3.605-3.604 0-.714.209-1.406.605-2l.73-1.096c1.744-2.614 2.665-5.656 2.665-8.799s-.921-6.185-2.664-8.799l-.73-1.096c-.396-.594-.605-1.286-.605-2-.001-1.988 1.616-3.605 3.604-3.605.714 0 1.405.209 2 .605l.68.453c2.887 1.925 6.246 2.942 9.715 2.942s6.828-1.017 9.715-2.941l.68-.453c.595-.396 1.286-.605 2-.605 1.988-.001 3.605 1.616 3.605 3.604 0 .714-.209 1.406-.605 2l-.73 1.096c-1.744 2.614-2.665 5.656-2.665 8.799s.921 6.185 2.664 8.799l.73 1.096c.396.594.605 1.286.605 2 .001 1.988-1.616 3.605-3.604 3.605z"/></svg>